<?xml version="1.0" encoding="UTF-8" standalone="no"?>
<!-- Created with Inkscape (http://www.inkscape.org/) -->

<svg
   xmlns:dc="http://purl.org/dc/elements/1.1/"
   xmlns:cc="http://creativecommons.org/ns#"
   xmlns:rdf="http://www.w3.org/1999/02/22-rdf-syntax-ns#"
   xmlns:svg="http://www.w3.org/2000/svg"
   xmlns="http://www.w3.org/2000/svg"
   xmlns:sodipodi="http://sodipodi.sourceforge.net/DTD/sodipodi-0.dtd"
   xmlns:inkscape="http://www.inkscape.org/namespaces/inkscape"
   width="500"
   height="500"
   id="svg2"
   version="1.1"
   inkscape:version="0.48.3.1 r9886"
   sodipodi:docname="dolphin.svg">
  <defs
     id="defs4" />
  <sodipodi:namedview
     id="base"
     pagecolor="#ffffff"
     bordercolor="#666666"
     borderopacity="1.0"
     inkscape:pageopacity="0.0"
     inkscape:pageshadow="2"
     inkscape:zoom="0.98994949"
     inkscape:cx="222.74876"
     inkscape:cy="341.15456"
     inkscape:document-units="px"
     inkscape:current-layer="layer1"
     showgrid="false"
     inkscape:window-width="1214"
     inkscape:window-height="776"
     inkscape:window-x="382"
     inkscape:window-y="150"
     inkscape:window-maximized="0" />
  <metadata
     id="metadata7">
    <rdf:RDF>
      <cc:Work
         rdf:about="">
        <dc:format>image/svg+xml</dc:format>
        <dc:type
           rdf:resource="http://purl.org/dc/dcmitype/StillImage" />
        <dc:title />
      </cc:Work>
    </rdf:RDF>
  </metadata>
  <g
     inkscape:label="Layer 1"
     inkscape:groupmode="layer"
     id="layer1"
     transform="translate(0,-552.36218)">
    <path
       style="fill:#000000"
       d="M 71.671331,966.7946 C 61.54541,960.61974 54.58118,947.71247 47.477345,921.95426 41.240421,899.33938 39.081484,895.38393 28.83916,887.80658 c -3.941663,-2.91608 -5.23458,-4.86601 -5.23458,-7.89458 0,-3.09138 0.645961,-4.02198 2.791774,-4.02198 3.563491,0 3.777265,-6.38165 0.532753,-15.90373 -3.522432,-10.3378 -2.117469,-37.64686 2.55704,-49.70292 4.835701,-12.47173 15.673416,-28.05776 18.146386,-31.56664 1.746243,-2.47773 5.21946,-5.78392 7.28177,-7.6447 2.062331,-1.86079 4.227085,-4.95888 5.98122,-6.36878 1.838844,-1.47799 3.124401,-3.30041 5.267258,-5.15353 1.627634,-1.40756 4.333037,-4.52657 6.214241,-6.2386 2.648936,-2.41072 4.439489,-3.76014 7.313972,-6.45482 5.107352,-4.78788 7.263434,-6.68484 9.497896,-8.5101 4.268147,-3.48652 3.588154,-2.71767 7.193941,-5.9172 1.934248,-1.71631 6.054499,-4.8451 7.787659,-6.05178 2.79424,-1.94543 9.79545,-6.9458 12.301,-8.22234 2.08108,-1.06028 5.2319,-2.82667 10.42869,-6.28149 5.19678,-3.45481 9.89541,-6.28149 10.44138,-6.28149 0.54597,0 2.79191,-1.28115 4.99096,-2.84704 2.19907,-1.56586 15.80123,-8.86743 30.22704,-16.2257 14.42581,-7.35829 26.62144,-13.99621 27.1014,-14.75094 0.47996,-0.75473 2.20342,-0.94985 3.82991,-0.43363 2.34937,0.74566 2.77787,0.47114 2.08459,-1.33553 -0.54466,-1.41936 0.18405,-3.01427 1.93878,-4.24334 2.76412,-1.93605 5.36846,-11.99117 4.68625,-18.09309 -0.17167,-1.53547 -2.79825,-4.99029 -5.83685,-7.67737 -5.18614,-4.58619 -6.9296,-8.71147 -4.35439,-10.30305 0.61991,-0.38312 4.48662,-1.14223 8.59269,-1.68692 7.1617,-0.95004 7.43365,-0.86821 6.68095,2.01009 -0.6699,2.56172 -0.19145,3.00044 3.27235,3.00044 2.23134,0 4.05697,0.62815 4.05697,1.39589 0,0.76774 0.94223,1.39588 2.09383,1.39588 1.15161,0 2.09383,0.58967 2.09383,1.31037 0,0.72069 2.82666,1.73423 6.28148,2.25231 5.72678,0.8588 6.2815,1.28751 6.2815,4.85481 0,2.15207 -0.78519,4.22967 -1.74486,4.61691 -1.04237,0.4206 -0.76137,0.74843 0.69794,0.81426 1.34354,0.0605 2.4428,1.11123 2.4428,2.33472 0,1.22348 1.2563,2.55303 2.79177,2.95457 1.53548,0.40154 2.79178,1.83984 2.79178,3.19623 0,1.3564 -1.2563,2.79469 -2.79178,3.19623 -1.53547,0.40153 -2.79177,1.49693 -2.79177,2.43423 0,1.23518 2.01679,1.46589 7.32841,0.83833 4.03062,-0.4762 13.47436,-1.2768 20.98607,-1.77909 8.0989,-0.54157 13.46835,-1.48126 13.19249,-2.30882 -0.73296,-2.19891 -15.01549,-9.36031 -18.668,-9.36031 -1.87802,0 -3.29657,-0.8319 -3.29657,-1.93329 0,-2.8166 -6.55932,-6.85518 -7.82025,-4.81496 -0.60772,0.98334 -0.36773,1.21369 0.62514,0.60005 0.88637,-0.5478 1.61158,-0.33078 1.61158,0.48227 0,0.81305 -0.94224,1.47827 -2.09384,1.47827 -1.15161,0 -2.09383,-1.17895 -2.09383,-2.61988 0,-2.72515 -9.64822,-7.75488 -18.12954,-9.45114 -4.49779,-0.89956 -5.87595,-4.67961 -1.70614,-4.67961 5.64339,0 19.08157,4.49027 29.24899,9.77334 22.81174,11.85313 39.44271,21.85554 39.44271,23.72212 0,0.60448 1.56243,1.49118 3.47205,1.97047 1.90964,0.47929 4.49448,2.43183 5.74409,4.33899 1.29696,1.9794 3.60987,3.46755 5.38932,3.46755 5.21157,0 27.29338,5.06699 39.13616,8.98035 22.61854,7.47414 44.95276,20.75246 67.93712,40.39056 23.98239,20.4908 48.08255,55.28559 55.72027,80.44651 2.71515,8.9445 3.1905,13.72173 3.26406,32.80333 0.0805,20.90143 -0.15952,23.02982 -3.74237,33.17815 -4.44693,12.59584 -8.84929,20.06116 -14.76632,25.04 -3.72367,3.13327 -4.3313,4.72195 -5.20766,13.61564 -0.75979,7.71066 -1.79337,11.02072 -4.41359,14.13468 -7.32959,8.71072 -15.8598,2.69745 -21.50278,-15.1581 -2.21202,-6.99925 -8.6709,-18.87687 -18.89867,-34.75389 -2.55664,-3.96879 -4.64844,-7.81267 -4.64844,-8.54195 0,-0.72928 -2.40817,-4.39172 -5.35149,-8.13876 -2.94333,-3.74704 -5.71867,-7.82966 -6.16744,-9.0725 -0.44874,-1.24285 -3.69435,-3.86851 -7.21244,-5.83481 -5.31983,-2.9733 -7.15844,-3.35658 -10.92298,-2.27691 -7.24749,2.07855 -45.11484,1.52636 -56.19265,-0.81942 -19.56807,-4.14363 -39.78276,-17.84109 -39.78276,-26.95675 0,-3.3622 0.6155,-4.42694 2.55912,-4.42694 10.08284,0 -4.72404,-6.18174 -20.0077,-8.35304 -27.61962,-3.92382 -49.27269,-5.75472 -73.55989,-6.21992 -15.1226,-0.28967 -19.09137,0.40263 -22.90274,0.70243 -2.41722,0.19014 -11.04792,1.80435 -13.52195,2.39008 -2.9989,0.71 -4.04188,0.94823 -6.92089,2.43416 -2.87901,1.48595 -4.44069,1.90578 -5.99218,2.68595 -3.00834,1.51274 -2.44787,2.03376 -5.90268,3.45846 -3.45482,1.42471 -4.31124,2.15687 -4.76627,2.56364 -1.38896,1.24169 -3.12942,1.69194 -3.8947,1.9936 -1.60169,0.63134 -3.68696,1.8916 -5.48384,2.81111 -1.76777,0.90463 -2.82312,2.06012 -4.72256,3.12819 -4.31348,2.42549 -9.57683,5.37552 -12.93273,8.37911 -1.01016,0.9041 -3.13664,3.09347 -5.13121,4.71891 -1.850974,1.50842 -2.557348,1.77895 -4.047101,3.18328 -1.25,1.17833 -2.76302,2.23173 -3.484623,2.97034 -1.39567,1.42857 -2.537561,3.04963 -4.53355,4.96555 -1.25,1.19986 -2.686065,3.41907 -3.846862,5.02172 -1.38363,1.9103 -3.311149,2.98697 -3.311149,3.8212 0,0.83421 -1.413332,3.3245 -3.140741,5.53397 -7.37438,9.43232 -9.099056,12.26159 -13.333532,21.873 -2.455207,5.57285 -4.464014,12.29423 -4.464014,14.93641 0,3.00018 -0.859169,5.28477 -2.288213,6.0845 -2.073182,1.16021 -2.089093,1.65863 -0.16933,5.30394 1.165401,2.21287 3.762831,7.16413 5.772088,11.00281 2.009267,3.83869 3.655824,8.62214 3.659039,10.62987 0.0031,2.00775 1.262144,5.24757 2.797619,7.19962 2.094006,2.6621 2.791774,5.66279 2.791774,12.00591 0,8.25771 2.532708,16.29806 6.744601,21.41143 2.189575,2.65823 1.305278,6.68532 -1.466228,6.67724 -0.983763,-0.003 -3.714198,-1.17943 -6.067657,-2.61458 z M 44.114335,891.6203 c -0.353912,-1.35815 -0.666753,-0.58491 -0.695202,1.7183 -0.02849,2.30321 0.261108,3.41442 0.643469,2.46936 0.382381,-0.94505 0.405645,-2.8295 0.05164,-4.18766 z m -2.076283,-24.03188 c 0.332083,-2.26266 0.08935,-3.79596 -0.539519,-3.40733 -1.119167,0.69168 -1.667433,7.52127 -0.603791,7.52127 0.296721,0 0.811217,-1.85126 1.1433,-4.11394 z m 3.900718,-8.61379 c 0,-0.76774 -0.628144,-1.00768 -1.395882,-0.53318 -0.767737,0.47448 -1.395882,1.49084 -1.395882,2.25858 0,0.76773 0.628145,1.00767 1.395882,0.53319 0.767738,-0.47449 1.395882,-1.49085 1.395882,-2.25859 z m 354.5551,-109.84346 c 0,-2.43585 -3.66329,-5.72592 -6.97942,-6.26837 -1.91935,-0.31395 -2.70454,-0.30226 -1.74486,0.026 0.95967,0.32823 1.74486,1.134 1.74486,1.79061 0,1.59807 4.05585,5.5809 5.68324,5.5809 0.71289,0 1.29618,-0.5081 1.29618,-1.1291 z m -294.91004,-3.90192 c -0.46385,-0.46384 -1.66781,-0.51342 -2.67545,-0.11014 -1.11354,0.4456 -0.78278,0.77637 0.84335,0.84334 1.47149,0.0606 2.29595,-0.26929 1.8321,-0.73315 z M 385.13912,741.187 c 0,-1.1516 0.66523,-2.09383 1.47828,-2.09383 0.81305,0 1.03006,0.72521 0.48226,1.61157 -0.61067,0.98809 -0.38359,1.23306 0.58697,0.63323 1.17196,-0.72432 1.1768,-1.62874 0.0188,-3.48322 -0.94944,-1.52029 -1.17739,-4.56742 -0.57994,-7.75209 0.85141,-4.53841 1.39655,-5.13667 4.03571,-4.4289 1.67824,0.45008 4.1506,0.8269 5.49414,0.83739 3.04687,0.0237 3.12482,3.15165 0.20172,8.0945 -1.5771,2.66683 -1.6349,3.06584 -0.19509,1.34678 1.12531,-1.34354 2.76194,-2.4428 3.63697,-2.4428 0.87504,0 1.59098,-0.59969 1.59098,-1.33264 0,-0.73294 2.19852,-1.74508 4.8856,-2.24917 2.68708,-0.50411 4.86471,-1.63182 4.83916,-2.50605 -0.0646,-2.21022 -4.96075,-7.871 -6.80783,-7.871 -0.8366,0 -1.5211,-0.64012 -1.5211,-1.42249 0,-0.82029 -1.47734,-1.05168 -3.48972,-0.54661 -2.90799,0.72985 -3.48972,0.37795 -3.48972,-2.11106 0,-1.64278 -1.09925,-3.37485 -2.44279,-3.84903 -1.34355,-0.47417 -3.85614,-2.13434 -5.58355,-3.68924 -1.73027,-1.55746 -3.14074,-2.09093 -3.14074,-1.18787 0,0.90156 -0.94222,1.6392 -2.09383,1.6392 -1.15161,0 -2.09383,-0.62814 -2.09383,-1.39588 0,-0.76773 -0.93026,-1.39589 -2.06724,-1.39589 -1.13698,0 -2.43738,-1.47484 -2.88981,-3.2774 -0.62161,-2.4767 -1.57961,-3.13269 -3.92126,-2.68505 -2.18115,0.41695 -3.61874,-0.36926 -4.85498,-2.65512 -1.70291,-3.14872 -12.83578,-8.36407 -23.95564,-11.22232 -2.68708,-0.69071 -6.93044,-1.78315 -9.42967,-2.42766 -2.91397,-0.75149 -4.86914,-0.64588 -5.45024,0.29437 -0.5294,0.85658 -0.2361,1.0521 0.70537,0.47024 0.88635,-0.5478 1.61157,-0.33078 1.61157,0.48226 0,1.91816 -0.95473,1.84662 -7.67738,-0.5753 -3.07095,-1.10634 -8.19436,-2.03912 -11.38538,-2.07281 -5.21994,-0.0551 -5.72491,0.23284 -5.03495,2.87129 0.60689,2.32075 0.2156,2.82131 -1.87554,2.39924 -1.68503,-0.34008 -2.60227,-1.6555 -2.53159,-3.63051 0.0957,-2.67619 -0.56829,-3.07134 -4.8856,-2.90709 -3.25683,0.12395 -3.90293,0.40072 -1.85569,0.79503 4.33881,0.83569 4.05326,4.59843 -0.34898,4.59843 -2.06274,0 -3.48971,-0.80014 -3.48971,-1.95677 0,-1.35472 -2.68429,-2.2885 -8.72428,-3.03493 -11.37057,-1.40518 -32.09995,-0.8987 -33.15605,0.81009 -0.4542,0.73493 -6.44955,1.66878 -13.32299,2.07523 -16.12495,0.95351 -20.81794,1.77247 -27.75219,4.84293 -3.1258,1.38407 -7.88179,3.34954 -10.56887,4.36766 -2.68708,1.01813 -5.71565,2.66286 -6.73017,3.65495 -1.01449,0.9921 -3.37006,1.80381 -5.23456,1.80381 -1.8645,0 -3.39002,0.54787 -3.39002,1.21748 0,0.66963 -2.51258,1.61925 -5.58354,2.11033 -3.07095,0.49106 -5.58354,1.53567 -5.58354,2.32134 0,0.9684 0.86965,0.96308 2.7,-0.0164 3.89408,-2.08405 7.0712,-1.77684 7.0712,0.68373 0,1.24854 -1.73152,2.47502 -4.18766,2.96626 -4.75428,0.95085 -5.58774,3.98448 -1.39589,5.08067 1.53548,0.40153 2.79178,0.16072 2.79178,-0.53514 0,-0.69586 0.94222,-1.2652 2.09382,-1.2652 1.15161,0 2.09383,-0.58614 2.09383,-1.30253 0,-0.71638 2.00845,-1.24543 4.46321,-1.17562 2.45477,0.0698 4.70563,-0.60037 5.00194,-1.48926 0.29629,-0.88886 2.01966,-1.61614 3.82972,-1.61614 1.81004,0 3.63622,-0.55856 4.05814,-1.24124 0.42193,-0.6827 2.49419,-1.67473 4.60502,-2.20452 2.11085,-0.52977 4.27761,-1.6747 4.81503,-2.54427 0.99453,-1.60916 2.40022,-1.8152 20.48032,-3.00184 5.64431,-0.37045 10.99161,-1.27875 11.88289,-2.01845 1.2509,-1.03815 23.4673,-1.29215 29.15353,-0.33331 1.58288,0.26691 1.25525,4.3642 -0.34896,4.3642 -0.76774,0 -1.39588,0.94223 -1.39588,2.09383 0,1.15161 -0.94224,2.09383 -2.09384,2.09383 -1.15161,0 -2.09383,-0.61974 -2.09383,-1.37721 0,-4.02029 -56.78148,6.88221 -67.70048,12.99903 l -4.18766,2.34593 3.82568,-0.85044 c 2.7765,-0.61722 4.06161,-0.23563 4.68598,1.39144 1.15519,3.01037 6.63918,2.84483 16.85485,-0.50881 4.60846,-1.51287 11.93166,-2.9262 16.27377,-3.14074 4.34212,-0.21453 7.89903,-0.73325 7.90422,-1.1527 0.005,-0.41945 3.93539,-0.77442 8.73375,-0.78882 9.87812,-0.0297 15.91876,-0.93991 17.45081,-2.62958 0.57458,-0.63367 0.25949,-0.7003 -0.70018,-0.14803 -0.95967,0.55227 -1.74485,0.33891 -1.74485,-0.47414 0,-0.81305 0.94222,-1.47828 2.09383,-1.47828 1.39588,0 2.09383,1.3959 2.09383,4.18767 0,2.30321 0.62814,4.18766 1.39588,4.18766 0.76774,0 1.39589,-0.62815 1.39589,-1.39589 0,-0.76773 0.94222,-1.39589 2.09383,-1.39589 1.1516,0 2.09383,0.62816 2.09383,1.39589 0,0.76774 1.25629,1.39589 2.79177,1.39589 1.53547,0 2.80139,0.78518 2.81314,1.74486 0.0155,1.26941 0.35192,1.22304 1.23446,-0.17014 0.66718,-1.05325 2.0709,-1.62105 3.11936,-1.26177 1.04847,0.35928 3.7375,0.13583 5.97563,-0.49651 5.05279,-1.42761 10.58748,-0.15797 10.58748,2.42871 0,1.8872 2.31921,2.52505 7.3284,2.01551 2.77833,-0.28262 3.35606,3.51351 0.69794,4.58607 -1.15948,0.46787 -1.01898,0.74104 0.41876,0.81427 1.19,0.0605 2.76037,-0.45177 3.48972,-1.13863 2.21064,-2.08183 10.05156,-3.23499 11.0468,-1.62468 0.50226,0.8127 2.68878,1.47763 4.85892,1.47763 2.17015,0 5.74493,0.93835 7.94396,2.08523 2.19904,1.14687 5.09751,2.08909 6.44105,2.09382 1.34354,0.004 2.44281,0.95082 2.44281,2.10243 0,1.15161 0.79112,2.09383 1.75805,2.09383 0.96693,0 2.54262,1.2563 3.50154,2.79177 1.10485,1.76913 3.25524,2.79178 5.87055,2.79178 2.26987,0 6.81863,0.889 10.10833,1.97556 12.00222,3.96418 15.05457,4.27117 15.05457,1.51415 z m -94.92026,-34.19921 c 0,-2.79177 0.69795,-4.18766 2.09383,-4.18766 1.1516,0 2.09383,0.62815 2.09383,1.39589 0,0.76774 0.94223,1.39588 2.09383,1.39588 3.28597,0 2.44749,3.76727 -1.04691,4.70373 -4.93482,1.32249 -5.23458,1.13306 -5.23458,-3.30784 z m -15.35475,0.69794 c 0,-1.15161 0.94222,-2.09383 2.09383,-2.09383 1.1516,0 2.09384,0.94222 2.09384,2.09383 0,1.1516 -0.94224,2.09384 -2.09384,2.09384 -1.15161,0 -2.09383,-0.94224 -2.09383,-2.09384 z m 8.37532,0 c 0,-1.15161 0.94222,-2.09383 2.09383,-2.09383 1.15161,0 2.09383,0.94222 2.09383,2.09383 0,1.1516 -0.94222,2.09384 -2.09383,2.09384 -1.15161,0 -2.09383,-0.94224 -2.09383,-2.09384 z m -100.50381,-4.18766 c 0,-1.1516 0.94223,-2.09382 2.09384,-2.09382 1.1516,0 2.09383,0.94222 2.09383,2.09382 0,1.15161 -0.94223,2.09383 -2.09383,2.09383 -1.15161,0 -2.09384,-0.94222 -2.09384,-2.09383 z m 106.08736,-5.58354 c 0,-1.15161 0.94222,-2.09383 2.09383,-2.09383 1.1516,0 2.09382,0.94222 2.09382,2.09383 0,1.1516 -0.94222,2.09382 -2.09382,2.09382 -1.15161,0 -2.09383,-0.94222 -2.09383,-2.09382 z m -17.66484,-5.64375 c -0.45462,-1.18471 -0.46199,-2.51861 -0.0164,-2.96422 1.40851,-1.40851 5.11825,0.75185 5.11825,2.9806 0,2.78627 -4.03134,2.77331 -5.10185,-0.0163 z m 6.49774,-1.33568 c 0,-1.15161 0.94223,-2.09383 2.09383,-2.09383 1.15161,0 2.09384,0.94222 2.09384,2.09383 0,1.1516 -0.94223,2.09382 -2.09384,2.09382 -1.1516,0 -2.09383,-0.94222 -2.09383,-2.09382 z m 41.87659,-4.18766 c 0,-1.1516 0.94223,-2.09383 2.09384,-2.09383 1.15159,0 2.09382,0.94223 2.09382,2.09383 0,1.15161 -0.94223,2.09383 -2.09382,2.09383 -1.15161,0 -2.09384,-0.94222 -2.09384,-2.09383 z m 95.47441,45.59895 c 0.39542,-0.63979 -0.16803,-1.16325 -1.25209,-1.16325 -1.08406,0 -1.6475,0.52346 -1.25209,1.16325 0.39539,0.63978 0.95884,1.16324 1.25209,1.16324 0.29325,0 0.85669,-0.52346 1.25209,-1.16324 z m -286.01615,-4.19094 c -0.99827,-0.99828 -4.88233,1.01477 -4.88233,2.53043 0,0.91871 1.00148,0.82609 2.72829,-0.25232 1.50056,-0.93711 2.46988,-1.96227 2.15404,-2.27811 z m 57.93256,-3.55635 c 0,-0.29438 -1.55137,-0.83178 -3.44748,-1.19426 -1.8961,-0.36244 -3.11534,-0.12157 -2.70939,0.53523 0.71481,1.15658 6.15687,1.7391 6.15687,0.65903 z m 6.10699,-1.97425 c 1.10366,-1.78574 -1.45653,-4.92076 -3.15916,-3.86849 -2.24097,1.385 -1.90922,4.98206 0.45949,4.98206 1.1063,0 2.32115,-0.5011 2.69967,-1.11357 z m -51.78743,-4.54892 c -0.5203,-1.98962 -1.44417,-2.58367 -3.01006,-1.93545 -1.24265,0.51438 -3.51566,1.32576 -5.05113,1.80304 -2.10452,0.65419 -1.41725,1.08188 2.79177,1.73738 3.07095,0.47828 5.68178,0.95872 5.80184,1.06766 0.12005,0.10888 -0.11949,-1.09373 -0.53242,-2.67263 z m 26.13803,-1.31693 c 1.69315,-1.0942 1.49281,-1.35722 -1.04692,-1.37452 -1.72741,-0.0112 -3.14075,0.60678 -3.14075,1.37452 0,1.74893 1.48138,1.74893 4.18767,0 z m -0.37806,-12.01045 c -0.46385,-0.46384 -1.66779,-0.51343 -2.67545,-0.11028 -1.11353,0.44562 -0.78278,0.77638 0.84335,0.84336 1.47149,0.0605 2.29595,-0.26931 1.8321,-0.73314 z m 54.43957,-2.79178 c -0.46386,-0.46383 -1.6678,-0.51342 -2.67546,-0.11027 -1.11353,0.44561 -0.78278,0.77638 0.84335,0.84335 1.4715,0.0605 2.29595,-0.26931 1.83211,-0.73314 z m 24.10811,-50.10648 c 0,-1.15161 0.94222,-2.09383 2.09383,-2.09383 1.15161,0 2.09383,0.94222 2.09383,2.09383 0,1.1516 -0.94222,2.09382 -2.09383,2.09382 -1.15161,0 -2.09383,-0.94222 -2.09383,-2.09382 z"
       id="path3007"
       inkscape:connector-curvature="0"
       sodipodi:nodetypes="ssssssssssssssssssscssssssssssssssssscssssssscssccsssssssssssssssssssssscssssssssssssssssssssssssssssscssscscccccccsccscssssscssssccscccssccsscssssssssssssssssssssssssssscccsssscssscsssscsssssssssscssssssssscsssscscsssssssssccssssccscsscsssssccssssssssssssssssssssssssssccsccsssssssssscscscsssssccscssccccsccscssccccccccccsssss" />
  </g>
</svg>
