<?xml version="1.0" encoding="UTF-8" standalone="no"?>
<!-- Created with Inkscape (http://www.inkscape.org/) -->

<svg
   xmlns:dc="http://purl.org/dc/elements/1.1/"
   xmlns:cc="http://creativecommons.org/ns#"
   xmlns:rdf="http://www.w3.org/1999/02/22-rdf-syntax-ns#"
   xmlns:svg="http://www.w3.org/2000/svg"
   xmlns="http://www.w3.org/2000/svg"
   xmlns:sodipodi="http://sodipodi.sourceforge.net/DTD/sodipodi-0.dtd"
   xmlns:inkscape="http://www.inkscape.org/namespaces/inkscape"
   width="500"
   height="500"
   id="svg2"
   version="1.1"
   inkscape:version="0.48.3.1 r9886"
   sodipodi:docname="spear.svg">
  <defs
     id="defs4" />
  <sodipodi:namedview
     id="base"
     pagecolor="#ffffff"
     bordercolor="#666666"
     borderopacity="1.0"
     inkscape:pageopacity="0.0"
     inkscape:pageshadow="2"
     inkscape:zoom="0.98994949"
     inkscape:cx="347.76446"
     inkscape:cy="291.16263"
     inkscape:document-units="px"
     inkscape:current-layer="layer1"
     showgrid="false"
     inkscape:window-width="1346"
     inkscape:window-height="772"
     inkscape:window-x="335"
     inkscape:window-y="254"
     inkscape:window-maximized="0" />
  <metadata
     id="metadata7">
    <rdf:RDF>
      <cc:Work
         rdf:about="">
        <dc:format>image/svg+xml</dc:format>
        <dc:type
           rdf:resource="http://purl.org/dc/dcmitype/StillImage" />
        <dc:title></dc:title>
      </cc:Work>
    </rdf:RDF>
  </metadata>
  <g
     inkscape:label="Layer 1"
     inkscape:groupmode="layer"
     id="layer1"
     transform="translate(0,-552.36218)">
    <path
       style="fill:#000000"
       d="m 59.250591,980.7097 c 10.286954,-10.52097 51.470969,-52.77131 91.520059,-93.8896 72.74069,-74.68263 151.60325,-154.58292 181.81651,-184.20884 8.80169,-8.63059 14.16736,-16.50185 14.75534,-17.61955 0.65627,-1.24753 1.64216,-1.78326 1.88928,-3.59906 0.46294,-1.4869 0.13608,-1.24998 0.42123,-2.54838 0.32388,-1.995 -1.0854,-7.77844 -0.50496,-8.30486 0.44144,-0.40035 2.88025,0.94362 7.11211,4.04845 2.78119,2.0405 3.44626,2.07276 9.82731,-4.42406 3.99233,-4.06483 7.72303,-9.73721 8.29044,-12.60528 2.31409,-11.69738 63.67692,-61.17279 74.96435,-65.76359 1.65384,-0.67266 5.82313,-2.30993 5.82313,-2.30993 -0.14596,0.10219 0.51334,-1.35352 -1.90751,5.10625 -2.7295,7.28337 -5.03339,16.27744 -22.93624,38.31282 -18.46905,22.73234 -30.8866,35.04005 -39.03635,38.69098 -3.72555,1.66896 -9.61198,5.774 -13.08099,9.12221 -5.23693,5.05466 -6.41147,6.37677 -4.65298,9.50371 1.73393,3.08322 5.67793,5.20543 4.90118,6.33249 -0.77677,1.12706 -5.86745,0.0132 -9.82089,0.15046 -6.44525,0.22372 -8.94172,3.40353 -17.78152,12.66233 -16.27546,17.04702 -103.62544,105.9129 -175.8835,178.93595 -125.435154,126.763 -119.548185,121.0829 -125.392496,120.9866 -3.764499,-0.062 -5.887802,-1.4714 -7.185203,-4.7691 -1.658642,-4.2157 0.01772,-6.58274 16.86171,-23.81 z m -8.772118,21.5233 c 2.391262,-3.87565 2.337237,-6.46042 -0.102021,-4.8815 -1.060124,0.68617 -1.88289,2.7331 -1.828515,4.5488 0.08522,2.8449 0.352062,2.8909 1.930596,0.3324 z m 2.554939,1.9 c 0.308803,-0.01 4.825515,-4.71594 10.036939,-10.46539 l 9.475438,-10.4537 -10.048673,9.90395 c -9.337458,9.20274 -10.920725,11.04564 -9.463704,11.01514 z m 30.406751,-37.09435 c 8.677767,-8.90514 39.448477,-40.27726 68.379427,-69.71584 28.93093,-29.43857 60.88549,-62.06746 71.01013,-72.50857 10.12464,-10.44121 28.20917,-28.41894 40.18785,-39.95054 28.6559,-27.58633 93.48203,-96.06083 93.34973,-98.60332 -0.0571,-1.09737 -1.15467,-0.65474 -2.43905,0.98372 -2.86288,3.65212 -51.13492,52.31654 -92.01111,92.75897 -61.50584,60.8532 -194.355472,198.40214 -194.297666,201.17058 0.02369,1.13083 7.142962,-5.22989 15.820689,-14.135 z m 13.679957,-6.80308 c 0.34976,-0.008 2.71562,-2.47415 5.25748,-5.48189 l 4.62152,-5.46861 -5.27077,4.84595 c -4.92631,4.52928 -6.13963,6.13657 -4.60823,6.10455 z m 74.94158,-75.79779 c 4.73358,-4.84395 8.59735,-9.24653 8.58612,-9.78349 -0.0111,-0.53697 -3.89334,2.98693 -8.62693,7.83087 -4.7336,4.84396 -8.59735,9.24653 -8.58613,9.78348 0.0111,0.53698 3.89333,-2.98691 8.62694,-7.83086 z m 47.39089,-47.87354 c 0.2922,-0.006 7.81991,-7.85518 16.7283,-17.44237 l 16.19703,-17.43133 -16.73941,16.91115 c -15.54705,15.70655 -17.60666,17.99224 -16.18592,17.96255 z m 34.51718,-35.8837 c 0.34974,-0.008 2.7156,-2.47413 5.25745,-5.48193 l 4.62152,-5.46857 -5.27075,4.84595 c -4.92631,4.52929 -6.13962,6.13655 -4.60822,6.10455 z m 30.73095,-29.94419 c 0.40546,-0.009 1.91103,-1.5783 3.34566,-3.48846 2.36407,-3.14773 2.29356,-3.21534 -0.75262,-0.72179 -3.19926,2.61876 -4.20011,4.24383 -2.59304,4.21025 z m 7.42433,-7.96904 c 0.28287,-0.006 12.5423,-12.78867 27.24322,-28.40615 l 26.7289,-28.39548 -27.25396,27.89187 c -25.31769,25.91032 -28.11681,28.93898 -26.71816,28.90976 z m 63.31246,-65.78744 c 0.40547,-0.009 1.91102,-1.57827 3.34567,-3.48845 2.36407,-3.14772 2.29356,-3.21534 -0.75264,-0.72179 -3.19923,2.61878 -4.20009,4.24384 -2.59303,4.21024 z m 9.1584,-15.48999 c 1.41869,-1.47931 0.65102,-1.71749 -2.5791,-0.80023 -2.62591,0.7456 -3.49252,1.6492 -2.01992,2.1061 1.4185,0.44013 3.48806,-0.14753 4.59902,-1.30587 z m -1.68631,7.51998 c 0.30915,-0.006 6.28864,-5.83764 13.28774,-12.95826 7.47725,-7.60704 13.84872,-12.54232 15.44868,-11.96637 1.65396,0.59531 8.66871,-5.50165 17.86746,-15.52968 21.02585,-22.92151 40.56296,-51.10423 38.39287,-50.99829 -1.84084,0.0898 -32.66801,24.67747 -49.12245,40.85447 -10.94878,10.76419 -16.25842,17.52035 -17.05206,21.69773 -0.6338,3.33651 -0.98661,6.62748 -0.78385,7.31342 0.20275,0.68587 -3.82379,5.1653 -8.94784,9.95433 -7.97997,7.45805 -11.27799,11.67835 -9.09055,11.63265 z m 36.18832,-40.84299 17.69523,-17.91025 -17.15534,18.42807 c -15.93347,17.11555 -18.19446,19.33901 -18.22409,17.92131 -0.006,-0.29088 7.9518,-8.58854 17.6842,-18.43913 z m -2.74755,8.74087 5.27076,-4.84595 -4.62151,5.46857 c -2.54184,3.00779 -4.90771,5.47463 -5.25748,5.48194 -1.53137,0.032 -0.31806,-1.57527 4.60823,-6.10456 z m 19.11807,-19.93418 5.27074,-4.84596 -4.62153,5.46864 c -4.31951,5.11124 -5.87468,6.39061 -5.90668,4.85925 -0.008,-0.34977 2.35857,-2.81662 5.25747,-5.48193 z"
       id="path3015"
       inkscape:connector-curvature="0"
       sodipodi:nodetypes="ssssccsssssssssssssssccsccccccscscssssssscscscscssssscscsccscscsssscscsccsscccsccscsssscscscscssccssscsss" />
  </g>
</svg>
