<?xml version="1.0" encoding="UTF-8" standalone="no"?>
<!-- Created with Inkscape (http://www.inkscape.org/) -->

<svg
   xmlns:dc="http://purl.org/dc/elements/1.1/"
   xmlns:cc="http://creativecommons.org/ns#"
   xmlns:rdf="http://www.w3.org/1999/02/22-rdf-syntax-ns#"
   xmlns:svg="http://www.w3.org/2000/svg"
   xmlns="http://www.w3.org/2000/svg"
   xmlns:sodipodi="http://sodipodi.sourceforge.net/DTD/sodipodi-0.dtd"
   xmlns:inkscape="http://www.inkscape.org/namespaces/inkscape"
   width="500"
   height="500"
   id="svg2"
   version="1.1"
   inkscape:version="0.48.3.1 r9886"
   sodipodi:docname="spear.svg">
  <defs
     id="defs4" />
  <sodipodi:namedview
     id="base"
     pagecolor="#ffffff"
     bordercolor="#666666"
     borderopacity="1.0"
     inkscape:pageopacity="0.0"
     inkscape:pageshadow="2"
     inkscape:zoom="1.4"
     inkscape:cx="262.27637"
     inkscape:cy="267.26409"
     inkscape:document-units="px"
     inkscape:current-layer="layer1"
     showgrid="false"
     inkscape:window-width="1346"
     inkscape:window-height="772"
     inkscape:window-x="335"
     inkscape:window-y="254"
     inkscape:window-maximized="0"
     inkscape:object-paths="false" />
  <metadata
     id="metadata7">
    <rdf:RDF>
      <cc:Work
         rdf:about="">
        <dc:format>image/svg+xml</dc:format>
        <dc:type
           rdf:resource="http://purl.org/dc/dcmitype/StillImage" />
        <dc:title />
      </cc:Work>
    </rdf:RDF>
  </metadata>
  <g
     inkscape:label="Layer 1"
     inkscape:groupmode="layer"
     id="layer1"
     transform="translate(0,-552.36218)">
    <path
       style="fill:#000000"
       d="m 59.250591,980.7097 c 10.286954,-10.52097 51.470969,-52.77131 91.520059,-93.8896 72.74069,-74.68263 151.60325,-154.58292 181.81651,-184.20884 8.80169,-8.63059 14.16736,-16.50185 14.75534,-17.61955 0.65627,-1.24753 1.64216,-1.78326 1.88928,-3.59906 0.46294,-1.4869 0.13608,-1.24998 0.42123,-2.54838 0.32388,-1.995 -1.0854,-7.77844 -0.50496,-8.30486 0.44144,-0.40035 2.88025,0.94362 7.11211,4.04845 2.78119,2.0405 3.44626,2.07276 9.82731,-4.42406 3.99233,-4.06483 7.72303,-9.73721 8.29044,-12.60528 2.31409,-11.69738 63.67692,-61.17279 74.96435,-65.76359 1.65384,-0.67266 5.82313,-2.30993 5.82313,-2.30993 -0.14596,0.10219 0.51334,-1.35352 -1.90751,5.10625 -2.7295,7.28337 -5.03339,16.27744 -22.93624,38.31282 -18.46905,22.73234 -30.8866,35.04005 -39.03635,38.69098 -3.72555,1.66896 -9.61198,5.774 -13.08099,9.12221 -5.23693,5.05466 -6.41147,6.37677 -4.65298,9.50371 1.73393,3.08322 5.67793,5.20543 4.90118,6.33249 -0.77677,1.12706 -5.86745,0.0132 -9.82089,0.15046 -6.44525,0.22372 -8.94172,3.40353 -17.78152,12.66233 -16.27546,17.04702 -103.62544,105.9129 -175.8835,178.93595 -125.435154,126.763 -119.548185,121.0829 -125.392496,120.9866 -3.764499,-0.062 -5.887802,-1.4714 -7.185203,-4.7691 -1.658642,-4.2157 0.01772,-6.58274 16.8617,-23.81 z m -8.772118,21.5233 c 2.391262,-3.87565 2.337237,-6.46042 -0.102021,-4.8815 -1.060124,0.68617 -1.88289,2.7331 -1.828515,4.5488 0.08522,2.8449 0.352062,2.8909 1.930596,0.3324 z m 2.554939,1.9 c 0.308803,-0.01 4.825515,-4.71594 10.036939,-10.46539 l 9.475438,-10.4537 -10.048673,9.90395 c -9.337458,9.20274 -10.920725,11.04564 -9.463704,11.01514 z m 30.406751,-37.09435 c 8.677767,-8.90514 39.448477,-40.27726 68.379427,-69.71584 28.93093,-29.43857 60.88549,-62.06746 71.01013,-72.50857 10.12464,-10.44121 28.20917,-28.41894 40.18785,-39.95054 28.6559,-27.58633 93.48203,-96.06083 93.34973,-98.60332 -0.0571,-1.09737 -1.15467,-0.65474 -2.43905,0.98372 -2.86288,3.65212 -51.13492,52.31654 -92.01111,92.75897 -61.50584,60.8532 -194.355472,198.40214 -194.297666,201.17058 0.02369,1.13083 7.142962,-5.22989 15.820689,-14.135 z m 13.679957,-6.80308 c 0.34976,-0.008 2.71562,-2.47415 5.25748,-5.48189 l 4.62152,-5.46861 -5.27077,4.84595 c -4.92631,4.52928 -6.13963,6.13657 -4.60823,6.10455 z m 74.94158,-75.79779 c 4.73358,-4.84395 8.59735,-9.24653 8.58612,-9.78349 -0.0111,-0.53697 -3.89334,2.98693 -8.62693,7.83087 -4.7336,4.84396 -8.59735,9.24653 -8.58613,9.78348 0.0111,0.53698 3.89333,-2.98691 8.62694,-7.83086 z m 47.39089,-47.87354 c 0.2922,-0.006 7.81991,-7.85518 16.7283,-17.44237 l 16.19703,-17.43133 -16.73941,16.91115 c -15.54705,15.70655 -17.60666,17.99224 -16.18592,17.96255 z m 34.51718,-35.8837 c 0.34974,-0.008 2.7156,-2.47413 5.25745,-5.48193 l 4.62152,-5.46857 -5.27075,4.84595 c -4.92631,4.52929 -6.13962,6.13655 -4.60822,6.10455 z m 30.73095,-29.94419 c 0.40546,-0.009 1.91103,-1.5783 3.34566,-3.48846 2.36407,-3.14773 2.29356,-3.21534 -0.75262,-0.72179 -3.19926,2.61876 -4.20011,4.24383 -2.59304,4.21025 z m 7.42433,-7.96904 c 0.28287,-0.006 12.5423,-12.78867 27.24322,-28.40615 l 26.7289,-28.39548 -27.25396,27.89187 c -25.31769,25.91032 -28.11681,28.93898 -26.71816,28.90976 z m 63.31246,-65.78744 c -236.95834,236.92154 -118.47917,118.46077 0,0 z m 31.40008,-30.38277 c 1.47459,-0.69452 3.34043,-1.8038 4.80843,-2.51187 1.63124,-0.78681 8.66871,-5.50165 17.86746,-15.52968 21.02585,-22.92151 40.56296,-51.19352 38.39287,-51.08758 -1.84084,0.0898 -32.66801,24.76676 -49.12245,40.94376 -10.94878,10.76419 -15.87119,17.56585 -17.74654,21.38206 -1.39141,2.83143 -1.23915,4.80403 -0.72072,6.61894 0.74584,2.61094 5.08935,0.85863 6.52095,0.18437 z m -8.54896,0.62397 c 17.43099,-17.46057 52.35795,-53.73298 67.82804,-68.49582 3.36765,-3.21369 5.28369,-2.81858 1.35725,0.89499 -3.92643,3.71357 -61.51952,64.11503 -66.13526,69.7024 -3.13454,3.79437 -12.8334,7.6984 -3.05003,-2.10157 z"
       id="path3015"
       inkscape:connector-curvature="0"
       sodipodi:nodetypes="ssssccsssssssssssssssccsccccccscscssssssscscscscssssscscsccscscsssscscscccsssssssssszss" />
    <path
       style="fill:#000000;stroke:#000000;stroke-width:0;stroke-linecap:butt;stroke-linejoin:miter;stroke-miterlimit:4;stroke-opacity:1;stroke-dasharray:none"
       d="m 392.32999,660.77529 c -0.6927,-0.26657 1.75251,-2.63685 2.19434,-3.09269 0.47656,-0.49167 6.40997,-5.3993 6.40997,-5.3993 0,0 -3.74467,5.39685 -4.27682,5.82813 -0.54033,0.43791 -3.57078,2.95506 -4.32749,2.66386 z"
       id="path2983-4"
       inkscape:connector-curvature="0"
       sodipodi:nodetypes="sscss" />
    <path
       style="fill:#000000;stroke:#000000;stroke-width:0;stroke-linecap:butt;stroke-linejoin:miter;stroke-miterlimit:4;stroke-opacity:1;stroke-dasharray:none"
       d="m 389.5771,651.60618 c -0.97116,-0.38036 2.45712,-3.7624 3.07655,-4.41283 0.66815,-0.70153 8.98703,-7.70407 8.98703,-7.70407 0,0 -5.25015,7.70058 -5.99626,8.31594 -0.75759,0.62483 -5.00636,4.21647 -6.06732,3.80096 z"
       id="path2983-4-1-2-6"
       inkscape:connector-curvature="0"
       sodipodi:nodetypes="sscss" />
    <path
       style="fill:#ffffff;stroke:#000000;stroke-width:0;stroke-linecap:butt;stroke-linejoin:miter;stroke-miterlimit:4;stroke-opacity:1;stroke-dasharray:none"
       d="m 366.86238,689.57615 c -0.72417,0.17596 1.8322,1.74054 2.2941,2.04144 0.49825,0.32454 6.7014,3.564 6.7014,3.564 0,0 -3.91494,-3.56239 -4.47127,-3.84708 -0.5649,-0.28906 -3.7331,-1.95059 -4.52423,-1.75836 z"
       id="path2983-4-7"
       inkscape:connector-curvature="0"
       sodipodi:nodetypes="sscss" />
    <path
       style="fill:#ffffff;stroke:#000000;stroke-width:0;stroke-linecap:butt;stroke-linejoin:miter;stroke-miterlimit:4;stroke-opacity:1;stroke-dasharray:none"
       d="m 356.46013,679.67232 c 0.47258,-0.23065 -1.19561,-2.28158 -1.49704,-2.67601 -0.32513,-0.42543 -4.37307,-4.67187 -4.37307,-4.67187 0,0 2.55473,4.66975 2.91778,5.04293 0.36863,0.37891 2.43608,2.55693 2.95233,2.30495 z"
       id="path2983-4-7-0"
       inkscape:connector-curvature="0"
       sodipodi:nodetypes="sscss" />
    <path
       style="fill:#000000;stroke:#000000;stroke-width:0;stroke-linecap:butt;stroke-linejoin:miter;stroke-miterlimit:4;stroke-opacity:1;stroke-dasharray:none"
       d="m 321.56187,722.45174 c -0.42097,-0.17256 1.06502,-1.70688 1.33353,-2.00196 0.28961,-0.31826 3.89543,-3.49505 3.89543,-3.49505 0,0 -2.27569,3.49347 -2.59908,3.77264 -0.32837,0.28348 -2.17002,1.91287 -2.62988,1.72437 z"
       id="path2983-90"
       inkscape:connector-curvature="0"
       sodipodi:nodetypes="sscss" />
    <path
       style="fill:#000000;stroke:#000000;stroke-width:0;stroke-linecap:butt;stroke-linejoin:miter;stroke-miterlimit:4;stroke-opacity:1;stroke-dasharray:none"
       d="m 265.8648,779.23438 c -0.86966,-0.32158 4.52167,-6.21662 5.0764,-6.76651 0.59828,-0.59309 12.33321,-10.97759 12.33321,-10.97759 0,0 -8.98703,10.97465 -9.65511,11.49489 -0.67838,0.52829 -6.80444,6.60048 -7.7545,6.24921 z"
       id="path2983-90-7-7"
       inkscape:connector-curvature="0"
       sodipodi:nodetypes="sscss" />
    <path
       style="fill:#000000;stroke:#000000;stroke-width:0;stroke-linecap:butt;stroke-linejoin:miter;stroke-miterlimit:4;stroke-opacity:1;stroke-dasharray:none"
       d="m 222.78769,821.76508 c -0.5123,-0.21552 1.29609,-2.13191 1.62286,-2.50046 0.35244,-0.3975 4.74057,-4.36534 4.74057,-4.36534 0,0 -2.76942,4.36338 -3.16296,4.71205 -0.39962,0.35407 -2.64082,2.38918 -3.20047,2.15375 z"
       id="path2983-90-7-9"
       inkscape:connector-curvature="0"
       sodipodi:nodetypes="sscss" />
    <path
       style="fill:#000000;stroke:#000000;stroke-width:0;stroke-linecap:butt;stroke-linejoin:miter;stroke-miterlimit:4;stroke-opacity:1;stroke-dasharray:none"
       d="m 160.97191,885.54445 c -0.6607,-1.54798 22.79331,-24.2637 25.12117,-26.69124 2.51068,-2.61824 30.45818,-32.76576 31.49224,-31.49085 1.13395,1.39807 -30.88881,32.33375 -34.68032,37.10278 -2.0199,2.54067 -21.5741,21.92041 -21.93309,21.07931 z"
       id="path2983-90-7-92"
       inkscape:connector-curvature="0"
       sodipodi:nodetypes="sssss" />
    <path
       style="fill:#000000;stroke:#000000;stroke-width:0;stroke-linecap:butt;stroke-linejoin:miter;stroke-miterlimit:4;stroke-opacity:1;stroke-dasharray:none"
       d="m 411.00636,630.64544 c -0.68054,-0.27165 1.72175,-2.68717 2.15584,-3.15171 0.46818,-0.50103 6.29743,-5.50231 6.29743,-5.50231 0,0 -3.67893,5.49984 -4.20172,5.93932 -0.53085,0.4463 -3.5081,3.01145 -4.25155,2.7147 z"
       id="path2983-90-7-2"
       inkscape:connector-curvature="0"
       sodipodi:nodetypes="sscss" />
    <path
       style="fill:#000000;stroke:#000000;stroke-width:0;stroke-linecap:butt;stroke-linejoin:miter;stroke-miterlimit:4;stroke-opacity:1;stroke-dasharray:none"
       d="m 424.88707,627.48386 c -0.63043,-0.32699 1.59497,-3.23457 1.99709,-3.79375 0.43371,-0.6031 5.83372,-6.62319 5.83372,-6.62319 0,0 -3.40803,6.62022 -3.89233,7.14923 -0.49176,0.5372 -3.24977,3.62491 -3.93848,3.26771 z"
       id="path2983-90-7-6"
       inkscape:connector-curvature="0"
       sodipodi:nodetypes="sscss" />
    <path
       style="fill:#000000;stroke:#000000;stroke-width:0;stroke-linecap:butt;stroke-linejoin:miter;stroke-miterlimit:4;stroke-opacity:1;stroke-dasharray:none"
       d="m 112.41398,935.15547 c -0.86966,-0.32158 4.52167,-6.21662 5.0764,-6.76651 0.59828,-0.59309 12.33321,-10.97759 12.33321,-10.97759 0,0 -8.98703,10.97465 -9.65511,11.49489 -0.67838,0.52829 -6.80444,6.60048 -7.7545,6.24921 z"
       id="path2983-90-7-7-7"
       inkscape:connector-curvature="0"
       sodipodi:nodetypes="sscss" />
  </g>
</svg>
